<?xml version="1.0" encoding="UTF-8" standalone="no"?>
<!DOCTYPE svg PUBLIC "-//W3C//DTD SVG 1.1//EN"
 "http://www.w3.org/Graphics/SVG/1.1/DTD/svg11.dtd">
<!-- Generated by graphviz version 2.47.0 (20210316.0004)
 -->
<!-- Title: dependencies Pages: 1 -->
<svg width="940pt" height="211pt"
 viewBox="0.00 0.00 940.00 211.00" xmlns="http://www.w3.org/2000/svg" xmlns:xlink="http://www.w3.org/1999/xlink">
<g id="graph0" class="graph" transform="scale(1 1) rotate(0) translate(4 207)">
<title>dependencies</title>
<polygon fill="white" stroke="transparent" points="-4,4 -4,-207 936,-207 936,4 -4,4"/>
<text text-anchor="start" x="445.01" y="-42.4" font-family="Times-12" font-weight="bold" font-size="14.00">Legend</text>
<polygon fill="#ffffb3" stroke="transparent" points="232,-10 232,-30 252,-30 252,-10 232,-10"/>
<text text-anchor="start" x="255.63" y="-15.4" font-family="Times-12" font-size="14.00"> &#160;Declarations</text>
<polygon fill="#8dd3c7" stroke="transparent" points="345,-10 345,-30 365,-30 365,-10 345,-10"/>
<text text-anchor="start" x="368.73" y="-15.4" font-family="Times-12" font-size="14.00"> &#160;Module</text>
<polygon fill="#80b1d3" stroke="transparent" points="431,-10 431,-30 451,-30 451,-10 431,-10"/>
<text text-anchor="start" x="454.78" y="-15.4" font-family="Times-12" font-size="14.00"> &#160;Bootstrap</text>
<polygon fill="#fdb462" stroke="transparent" points="528,-10 528,-30 548,-30 548,-10 528,-10"/>
<text text-anchor="start" x="551.67" y="-15.4" font-family="Times-12" font-size="14.00"> &#160;Providers</text>
<polygon fill="#fb8072" stroke="transparent" points="624,-10 624,-30 644,-30 644,-10 624,-10"/>
<text text-anchor="start" x="647.73" y="-15.4" font-family="Times-12" font-size="14.00"> &#160;Exports</text>
<g id="clust1" class="cluster">
<title>cluster_OrdersModule</title>
<polygon fill="none" stroke="black" stroke-dasharray="1,5" points="8,-70 8,-195 924,-195 924,-70 8,-70"/>
</g>
<g id="clust7" class="cluster">
<title>cluster_OrdersModule_imports</title>
<polygon fill="none" stroke="black" points="758,-78 758,-130 916,-130 916,-78 758,-78"/>
</g>
<g id="clust2" class="cluster">
<title>cluster_OrdersModule_declarations</title>
<polygon fill="none" stroke="black" points="16,-78 16,-130 750,-130 750,-78 16,-78"/>
</g>
<!-- PageAddOrderComponent -->
<g id="node1" class="node">
<title>PageAddOrderComponent</title>
<polygon fill="#ffffb3" stroke="black" points="741.79,-122 576.21,-122 576.21,-86 741.79,-86 741.79,-122"/>
<text text-anchor="middle" x="659" y="-99.8" font-family="Times,serif" font-size="14.00">PageAddOrderComponent</text>
</g>
<!-- OrdersModule -->
<g id="node5" class="node">
<title>OrdersModule</title>
<polygon fill="#8dd3c7" stroke="black" points="524.64,-187 521.64,-191 500.64,-191 497.64,-187 427.36,-187 427.36,-151 524.64,-151 524.64,-187"/>
<text text-anchor="middle" x="476" y="-164.8" font-family="Times,serif" font-size="14.00">OrdersModule</text>
</g>
<!-- PageAddOrderComponent&#45;&gt;OrdersModule -->
<g id="edge1" class="edge">
<title>PageAddOrderComponent&#45;&gt;OrdersModule</title>
<path fill="none" stroke="black" d="M659,-122.02C659,-139.37 659,-163 659,-163 659,-163 535.04,-163 535.04,-163"/>
<polygon fill="black" stroke="black" points="535.04,-159.5 525.04,-163 535.04,-166.5 535.04,-159.5"/>
</g>
<!-- PageEditOrderComponent -->
<g id="node2" class="node">
<title>PageEditOrderComponent</title>
<polygon fill="#ffffb3" stroke="black" points="558.02,-122 393.98,-122 393.98,-86 558.02,-86 558.02,-122"/>
<text text-anchor="middle" x="476" y="-99.8" font-family="Times,serif" font-size="14.00">PageEditOrderComponent</text>
</g>
<!-- PageEditOrderComponent&#45;&gt;OrdersModule -->
<g id="edge2" class="edge">
<title>PageEditOrderComponent&#45;&gt;OrdersModule</title>
<path fill="none" stroke="black" d="M476,-122.11C476,-122.11 476,-140.99 476,-140.99"/>
<polygon fill="black" stroke="black" points="472.5,-140.99 476,-150.99 479.5,-140.99 472.5,-140.99"/>
</g>
<!-- PageListOrdersComponent -->
<g id="node3" class="node">
<title>PageListOrdersComponent</title>
<polygon fill="#ffffb3" stroke="black" points="376.41,-122 207.59,-122 207.59,-86 376.41,-86 376.41,-122"/>
<text text-anchor="middle" x="292" y="-99.8" font-family="Times,serif" font-size="14.00">PageListOrdersComponent</text>
</g>
<!-- PageListOrdersComponent&#45;&gt;OrdersModule -->
<g id="edge3" class="edge">
<title>PageListOrdersComponent&#45;&gt;OrdersModule</title>
<path fill="none" stroke="black" d="M292,-122.02C292,-139.37 292,-163 292,-163 292,-163 417.17,-163 417.17,-163"/>
<polygon fill="black" stroke="black" points="417.17,-166.5 427.17,-163 417.17,-159.5 417.17,-166.5"/>
</g>
<!-- PageNotFoundComponent -->
<g id="node4" class="node">
<title>PageNotFoundComponent</title>
<polygon fill="#ffffb3" stroke="black" points="189.82,-122 24.18,-122 24.18,-86 189.82,-86 189.82,-122"/>
<text text-anchor="middle" x="107" y="-99.8" font-family="Times,serif" font-size="14.00">PageNotFoundComponent</text>
</g>
<!-- PageNotFoundComponent&#45;&gt;OrdersModule -->
<g id="edge4" class="edge">
<title>PageNotFoundComponent&#45;&gt;OrdersModule</title>
<path fill="none" stroke="black" d="M107,-122.28C107,-143.32 107,-175 107,-175 107,-175 417,-175 417,-175"/>
<polygon fill="black" stroke="black" points="417,-178.5 427,-175 417,-171.5 417,-178.5"/>
</g>
<!-- OrdersRoutingModule -->
<g id="node6" class="node">
<title>OrdersRoutingModule</title>
<polygon fill="#8dd3c7" stroke="black" points="908.25,-122 905.25,-126 884.25,-126 881.25,-122 765.75,-122 765.75,-86 908.25,-86 908.25,-122"/>
<text text-anchor="middle" x="837" y="-99.8" font-family="Times,serif" font-size="14.00">OrdersRoutingModule</text>
</g>
<!-- OrdersRoutingModule&#45;&gt;OrdersModule -->
<g id="edge5" class="edge">
<title>OrdersRoutingModule&#45;&gt;OrdersModule</title>
<path fill="none" stroke="black" d="M837,-122.28C837,-143.32 837,-175 837,-175 837,-175 534.69,-175 534.69,-175"/>
<polygon fill="black" stroke="black" points="534.69,-171.5 524.69,-175 534.69,-178.5 534.69,-171.5"/>
</g>
</g>
</svg>
